<svg xmlns="http://www.w3.org/2000/svg" aria-hidden="true" style="position:absolute;width:0;height:0;overflow:hidden">
  <defs>
    <symbol id="icon-facebook" viewBox="0 0 32 32">
      <path d="M28.8 16.388c0-7.112-5.731-12.877-12.8-12.877S3.2 9.275 3.2 16.387c0 6.428 4.681 11.756 10.801 12.723v-9H10.75v-3.724h3.251V13.55c0-3.228 1.91-5.011 4.835-5.011 1.4 0 2.865.252 2.865.252v3.169h-1.613c-1.591 0-2.086.992-2.086 2.011v2.415h3.549l-.567 3.724h-2.982v8.998c6.118-.966 10.799-6.294 10.799-12.722z"/>
    </symbol>
    <symbol id="icon-instagram" viewBox="0 0 32 32">
      <path d="M21.12 4.79H10.88a6.4 6.4 0 0 0-6.4 6.4v10.24a6.4 6.4 0 0 0 6.4 6.4h10.24a6.4 6.4 0 0 0 6.4-6.4V11.19a6.4 6.4 0 0 0-6.4-6.4zm4.16 16.64a4.172 4.172 0 0 1-4.159 4.16H10.88a4.172 4.172 0 0 1-4.16-4.159V11.19a4.172 4.172 0 0 1 4.159-4.16H21.12a4.172 4.172 0 0 1 4.16 4.159V21.43zm-3.2-9.92a1.28 1.28 0 1 1 0-2.56 1.28 1.28 0 1 1 0 2.56zM16 10.55h-.001.013a5.747 5.747 0 0 1 5.747 5.747v.013a5.76 5.76 0 1 1-5.76-5.76zm-3.52 5.76a3.52 3.52 0 0 0 7.04 0 3.52 3.52 0 0 0-7.04 0z"/>
    </symbol>
    <symbol id="icon-linkedin" viewBox="0 0 32 32">
      <path d="M6.4 4.79h19.2c1.06 0 1.92.86 1.92 1.92v19.2c0 1.06-.86 1.92-1.92 1.92H6.4a1.92 1.92 0 0 1-1.92-1.92V6.71c0-1.06.86-1.92 1.92-1.92zm5.147 5.124c.006-1.073-.81-1.898-1.937-1.924h.003l-.063-.001A1.912 1.912 0 0 0 7.639 9.9v.015-.002l-.001.051c0 1.058.855 1.916 1.912 1.923 1.087.005 2.003-.749 1.996-1.972zm4.811 3.531H13.13v10.957h3.41v-1.715c-.003-1.298-.004-2.597.004-3.894.001-.315.015-.643.096-.943.305-1.123 1.315-1.848 2.441-1.67.724.114 1.203.532 1.404 1.216.124.425.179.884.186 1.33.015 1.34.013 2.682.01 4.022V24.4H24.1v-1.998c-.001-1.446-.003-2.892.001-4.338v-.065a7.73 7.73 0 0 0-.24-1.918l.012.053c-.239-.94-.735-1.718-1.54-2.278-.57-.401-1.197-.658-1.897-.686l-.241-.013c-.358-.019-.722-.038-1.064.031-.979.196-1.839.644-2.49 1.434-.077.091-.15.183-.26.32l-.026.032v-1.528zM7.913 24.406h3.392V13.452H7.913v10.954z"/>
    </symbol>
    <symbol id="icon-youtube" viewBox="0 0 32 32">
      <path d="M28.279 9.86a3.22 3.22 0 0 0-2.233-2.255l-.023-.005c-2.004-.55-10.024-.559-10.024-.559s-8.018-.009-10.024.517A3.292 3.292 0 0 0 3.72 9.811l-.006.023c-.529 2.004-.534 6.162-.534 6.162s-.005 4.178.52 6.162a3.204 3.204 0 0 0 2.257 2.259c2.025.55 10.022.559 10.022.559s8.019.009 10.022-.516a3.234 3.234 0 0 0 2.258-2.234l.005-.023c.53-2.003.534-6.159.534-6.159s.026-4.179-.521-6.184zm-14.844 9.986.006-7.68 6.665 3.846-6.671 3.834z"/>
    </symbol>
    <symbol id="icon-close" viewBox="0 0 32 32">
      <path d="m22.835 22.364-.471.471a.663.663 0 0 1-.942 0l-5.421-5.42-5.421 5.42a.667.667 0 0 1-.944 0l-.471-.471a.663.663 0 0 1 0-.942l5.42-5.421-5.42-5.421a.667.667 0 0 1 0-.944l.47-.471a.67.67 0 0 1 .944 0l5.42 5.42 5.422-5.42c.26-.26.683-.26.943 0l.471.471c.26.26.26.683 0 .943L17.415 16l5.42 5.421c.26.26.26.683 0 .943z"/>
    </symbol>
    <symbol id="icon-Frame-1" viewBox="0 0 112 32">
<path d="M19.697 0.603c0.498 0.247 1.057 0.957 1.433 1.377 3.223 3.6 4.913 8.185 4.614 13.011-0.289 4.671-2.596 8.818-6.058 11.883-0.656-0.448-1.255-1.086-1.78-1.679-2.941-3.326-4.553-7.999-4.272-12.433 0.29-4.571 2.626-9.145 6.063-12.159z"></path>
<path d="M33.411 7.14c0.009 0.016 0.020 0.032 0.029 0.049 0.183 0.373 0.236 0.966 0.283 1.381 0.242 2.156 0.042 4.317-0.716 6.358-1.894 5.099-6.272 8.853-11.113 11.078-0.057-0.001-0.019 0.004-0.106-0.047 0.296-0.484 0.708-0.917 1.050-1.371 0.522-0.71 0.995-1.454 1.416-2.228 1.483-2.729 2.192-5.729 2.19-8.824-0.001-0.879-0.021-1.757-0.275-2.605 0.454-0.504 1.010-0.928 1.55-1.337 1.74-1.317 3.493-2.233 5.693-2.453z"></path>
<path d="M5.92 7.161c0.261 0.010 0.525 0.044 0.783 0.083 1.989 0.303 3.728 1.361 5.282 2.587 0.434 0.342 0.908 0.699 1.234 1.148-0.826 4.243 0.27 8.693 2.464 12.363 0.35 0.583 0.729 1.149 1.134 1.696 0.193 0.26 0.424 0.497 0.597 0.77l-0.061 0.080c-3.618-1.547-7.007-4.285-9.187-7.557-2.287-3.433-3.044-7.132-2.246-11.17z"></path>
<path d="M36.95 16.631c0.577-0.069 1.87-0.142 2.353 0.166 0.024 0.073 0.032 0.080 0.034 0.168 0.010 0.338-0.211 0.845-0.326 1.161-0.767 2.179-2.081 4.124-3.815 5.65-3.395 3.001-7.795 4.078-12.238 3.793-0.839-0.088-1.705-0.146-2.511-0.403 3.723-1.145 7.265-3.485 9.831-6.406 0.631-0.718 1.093-1.552 1.707-2.275 1.165-1.371 3.277-1.734 4.966-1.853z"></path>
<path d="M1.382 16.744c1.735-0.205 4.089 0.081 5.518 1.161 0.85 0.642 1.362 1.835 2.064 2.647 2.196 2.543 4.946 4.548 8.039 5.861 0.659 0.282 1.337 0.576 2.033 0.748l-1.392 0.233c-4.054 0.583-8.254-0.141-11.723-2.396-2.362-1.536-4.025-3.643-5.003-6.27-0.144-0.385-0.358-0.803-0.432-1.205-0.043-0.234-0.005-0.389 0.132-0.588 0.218-0.161 0.501-0.159 0.763-0.19z"></path>
<path d="M72.176 13.241c1.351-0.011 2.825-0.132 4.159 0.063 0.858 0.125 1.73 0.432 2.253 1.168 0.384 0.542 0.509 1.303 0.391 1.951-0.146 0.792-0.648 1.25-1.284 1.677 0.153 0.064 0.303 0.134 0.449 0.212 0.562 0.304 0.959 0.831 1.124 1.445 0.225 0.84 0.044 1.704-0.374 2.449-0.094 0.143-0.205 0.269-0.329 0.387-1.282 1.216-4.093 0.981-5.75 0.965-0.319-0.003-0.739 0.026-0.977-0.216-0.058-0.121-0.081-0.201-0.089-0.339-0.109-1.779-0.010-3.626-0.010-5.411-0.001-1.265-0.127-2.911 0.038-4.133 0.127-0.159 0.208-0.158 0.4-0.217zM76.702 19.499c-0.716-0.467-1.921-0.332-2.751-0.331l0.003 2.306c0.92 0.006 1.996 0.149 2.813-0.345 0.192-0.283 0.385-0.705 0.329-1.057-0.040-0.256-0.18-0.434-0.393-0.573zM76.361 15.399c-0.683-0.411-1.641-0.306-2.409-0.302v2.213c0.824 0.007 1.806 0.128 2.526-0.337 0.193-0.277 0.38-0.675 0.307-1.025-0.053-0.257-0.206-0.418-0.425-0.549z"></path>
<path d="M59.58 15.637c0.206-0.017 0.413-0.006 0.616 0.033 0.618 0.124 0.919 0.579 1.25 1.064 0.019-0.169 0.032-0.353 0.072-0.518 0.041-0.173 0.135-0.279 0.29-0.362 0.25-0.133 0.786-0.141 1.047-0.044 0.191 0.071 0.403 0.237 0.469 0.436 0.194 0.591 0.119 6.371 0.007 7.161-0.074 0.521-0.236 1.035-0.499 1.491-0.423 0.737-1.145 1.217-1.954 1.436-1.142 0.309-2.441 0.21-3.46-0.404-0.455-0.273-0.668-0.625-0.788-1.133 0.038-0.183 0.084-0.362 0.241-0.481 0.51-0.386 1.613 0.262 2.18 0.367 0.488 0.090 1.014 0.041 1.419-0.266 0.668-0.504 0.779-1.436 0.893-2.204-0.447 0.478-0.873 0.863-1.533 1.025-0.715 0.176-1.498 0.055-2.113-0.353-0.81-0.537-1.261-1.457-1.427-2.392-0.202-1.138-0.026-2.499 0.664-3.452 0.658-0.908 1.563-1.242 2.626-1.405zM59.701 17.38c-0.532 0.201-0.827 0.447-1.055 0.978-0.281 0.652-0.289 1.597-0.014 2.251 0.145 0.345 0.436 0.709 0.802 0.832 0.242 0.081 0.534 0.046 0.783 0.029 0.439-0.157 0.688-0.341 0.896-0.767 0.32-0.654 0.33-1.576 0.086-2.259-0.142-0.397-0.422-0.787-0.819-0.958-0.203-0.088-0.459-0.117-0.678-0.105z"></path>
<path d="M103.805 15.699c0.523-0.069 1.038-0.046 1.532 0.159 0.682 0.282 1.036 0.797 1.306 1.453 0.138-0.347 0.291-0.696 0.536-0.983 0.387-0.456 0.894-0.637 1.482-0.659 0.676-0.026 1.369 0.129 1.865 0.615 0.326 0.32 0.526 0.748 0.635 1.186 0.29 1.168 0.128 3.677 0.132 4.997 0.001 0.202 0.026 0.84-0.132 0.96-0.269 0.203-1.221 0.158-1.556 0.11-0.195-0.027-0.316-0.133-0.397-0.31-0.124-0.273-0.058-0.76-0.054-1.062 0.013-0.979 0.254-3.684-0.325-4.398-0.133-0.164-0.322-0.266-0.534-0.281-0.312-0.022-0.709 0.086-0.935 0.308-0.803 0.787-0.537 3.583-0.53 4.683 0.002 0.222 0.010 0.465-0.017 0.685-0.012 0.097-0.046 0.21-0.135 0.261-0.342 0.196-1.175 0.167-1.552 0.079-0.197-0.046-0.281-0.112-0.351-0.303-0.116-0.316-0.051-0.785-0.045-1.119 0.018-0.981 0.25-3.42-0.249-4.155-0.15-0.221-0.373-0.355-0.635-0.398-0.298-0.049-0.609-0.009-0.851 0.183-0.976 0.77-0.709 3.47-0.705 4.586 0.001 0.268 0.056 0.652-0.006 0.903-0.025 0.105-0.056 0.168-0.146 0.227-0.314 0.206-1.165 0.162-1.54 0.088-0.158-0.031-0.259-0.128-0.327-0.271-0.096-0.203-0.125-6.071-0.089-6.652 0.010-0.162 0.044-0.335 0.118-0.48 0.095-0.187 0.255-0.309 0.451-0.372 0.464-0.15 1.044 0.016 1.454 0.244 0.099 0.367 0.028 0.847 0.012 1.229 0.048-0.097 0.097-0.195 0.147-0.291 0.362-0.7 0.703-0.986 1.443-1.221z"></path>
<path d="M95.361 15.729c2.161-0.045 3.957 1.657 4.029 3.818s-1.607 3.976-3.767 4.074c-1.421 0.065-2.767-0.64-3.523-1.844s-0.807-2.723-0.131-3.974c0.675-1.252 1.972-2.045 3.393-2.074zM95.095 17.447c-0.581 0.258-0.896 0.554-1.121 1.16-0.269 0.725-0.226 1.739 0.118 2.431 0.186 0.373 0.474 0.676 0.875 0.81 0.275 0.092 0.531 0.107 0.813 0.040 0.557-0.233 0.89-0.53 1.118-1.1 0.286-0.715 0.283-1.67-0.046-2.371-0.206-0.439-0.573-0.8-1.043-0.939-0.23-0.068-0.479-0.053-0.715-0.031z"></path>
<path d="M51.606 15.741c2.175-0.098 4.018 1.583 4.12 3.758s-1.577 4.021-3.751 4.126c-2.179 0.105-4.030-1.578-4.131-3.758s1.584-4.028 3.763-4.126zM52.221 17.499c-0.252-0.086-0.511-0.085-0.772-0.052-0.582 0.288-0.916 0.589-1.138 1.225-0.251 0.721-0.214 1.75 0.148 2.427 0.198 0.369 0.497 0.64 0.901 0.763 0.248 0.076 0.529 0.083 0.781 0.022 0.555-0.231 0.881-0.529 1.104-1.099 0.283-0.722 0.26-1.675-0.068-2.38-0.192-0.414-0.52-0.756-0.957-0.906z"></path>
<path d="M86.517 15.784c1.401-0.226 2.814 0.318 3.703 1.423s1.115 2.604 0.593 3.923c-0.524 1.319-1.715 2.256-3.12 2.452-2.14 0.299-4.123-1.181-4.445-3.318s1.137-4.135 3.27-4.481zM86.838 17.443c-0.585 0.249-0.921 0.531-1.158 1.137-0.277 0.71-0.25 1.693 0.078 2.383 0.198 0.416 0.535 0.758 0.981 0.9 0.223 0.071 0.476 0.070 0.706 0.042 0.583-0.246 0.923-0.522 1.164-1.128 0.281-0.704 0.276-1.676-0.051-2.363-0.194-0.408-0.524-0.753-0.957-0.906-0.244-0.086-0.508-0.085-0.763-0.064z"></path>
<path d="M66.804 15.703c0.494-0.059 0.969-0.049 1.456 0.064 0.739 0.171 1.358 0.601 1.734 1.263 0.201 0.355 0.318 0.744 0.374 1.147 0.086 0.623 0.135 4.559-0.007 5.1-0.119 0.152-0.238 0.206-0.423 0.246-0.316 0.067-1.008 0.108-1.263-0.129-0.223-0.206-0.177-0.637-0.18-0.914-0.37 0.547-0.743 0.988-1.415 1.156-0.752 0.187-1.449-0.033-2.096-0.406-0.276-0.254-0.485-0.515-0.604-0.875-0.2-0.609-0.136-1.429 0.176-1.99 0.755-1.359 2.536-1.278 3.837-1.661l0.081-0.025c-0.053-0.163-0.103-0.329-0.171-0.486-0.737-1.698-2.573 0.157-3.461-0.31-0.179-0.094-0.309-0.285-0.354-0.479-0.061-0.258 0.009-0.425 0.15-0.639 0.477-0.727 1.371-0.911 2.167-1.063zM68.386 20.24c-0.541 0.149-1.556 0.312-1.879 0.803-0.105 0.16-0.114 0.37-0.046 0.547 0.048 0.125 0.142 0.233 0.225 0.336 0.559 0.038 0.91-0.004 1.337-0.392 0.259-0.236 0.497-0.616 0.484-0.982-0.003-0.091-0.029-0.183-0.050-0.271l-0.073-0.042z"></path>
<path d="M44.731 17.164c0.194-0.616 1.702-3.562 2.183-3.839 0.25-0.144 1.582-0.166 1.85-0.043 0.172 0.079 0.19 0.125 0.268 0.285-0.137 0.763-1.823 3.323-2.321 4.158l-0.876 1.456c0.003 0.876 0.157 3.548-0.148 4.182-0.107 0.082-0.183 0.127-0.317 0.159-0.411 0.096-1.229 0.068-1.592-0.16-0.281-0.37-0.134-3.437-0.133-4.116-0.448-0.716-3.337-5.329-3.261-5.77 0.095-0.137 0.157-0.172 0.312-0.232 0.487-0.014 1.478-0.144 1.882 0.101 0.523 0.318 1.96 3.172 2.154 3.82z"></path>
<path d="M80.515 13.242c0.511-0.013 1.348-0.141 1.789 0.123 0.124 0.842 0.075 1.733 0.077 2.583l0.005 3.933c0 1.027 0.113 2.263-0.020 3.271-0.026 0.201-0.15 0.266-0.295 0.381-0.533 0.018-1.352 0.149-1.79-0.197-0.103-0.394-0.168-9.474-0.069-9.832 0.047-0.17 0.159-0.189 0.303-0.262z"></path>
<path d="M19.906 27.436c0.705 0.251 1.415 0.451 2.155 0.571 1.274 0.207 2.755 0.146 3.9 0.81 0.846 0.49 1.711 1.639 1.951 2.591 0.044 0.175 0.031 0.189-0.058 0.334-0.885 0.319-1.745 0.243-2.625-0.045-2.121-0.694-4.283-2.239-5.322-4.261z"></path>
<path d="M19.507 27.441c0.045-0.004 0.088 0.019 0.131 0.032-0.002 0.020-0.002 0.041-0.007 0.061-0.109 0.451-1.855 2.292-2.259 2.611-1.393 1.1-3.462 1.974-5.26 1.759-0.048-0.010-0.115-0.023-0.159-0.044-0.097-0.045-0.158-0.081-0.184-0.185-0.068-0.281 0.092-0.607 0.22-0.852 0.412-0.787 1.057-1.711 1.865-2.136 0.996-0.523 2.466-0.521 3.573-0.718 0.709-0.126 1.392-0.318 2.079-0.528z"></path>
</symbol>
  </defs>
</svg>