<svg xmlns="http://www.w3.org/2000/svg" aria-hidden="true" style="position:absolute;width:0;height:0;overflow:hidden">
  <defs>
    <symbol id="icon-logo" viewBox="0 0 76 32">
      <path d="M13.575 2.542c.332.164.705.638.956.917 2.148 2.4 3.276 5.457 3.076 8.675-.193 3.114-1.731 5.878-4.038 7.922-.437-.299-.837-.724-1.187-1.12-1.961-2.217-3.036-5.332-2.848-8.288.193-3.048 1.751-6.097 4.042-8.107z"/>
      <path d="m22.718 6.9.02.032c.122.249.157.644.188.921.162 1.436.028 2.877-.477 4.238-1.263 3.4-4.182 5.902-7.409 7.386-.038 0-.012.003-.071-.031.197-.323.473-.612.7-.915.348-.473.663-.969.943-1.484.989-1.82 1.461-3.82 1.46-5.884 0-.586-.014-1.171-.184-1.737.302-.336.674-.619 1.034-.891 1.16-.878 2.329-1.49 3.796-1.636zm-18.327.015c.174.006.35.029.523.055 1.325.202 2.485.908 3.521 1.724.289.228.605.466.823.765-.551 2.829.18 5.796 1.643 8.242.233.389.485.766.756 1.131.13.174.283.332.399.514l-.042.053c-2.412-1.031-4.671-2.857-6.124-5.038-1.524-2.289-2.029-4.755-1.498-7.445z"/>
      <path d="M25.077 13.227c.385-.044 1.247-.093 1.569.111.017.049.021.053.023.113.006.226-.141.563-.218.773a9.035 9.035 0 0 1-2.533 3.758l-.01.008c-2.264 2.002-5.197 2.72-8.16 2.529-.559-.059-1.136-.098-1.674-.269 2.482-.764 4.843-2.323 6.554-4.27.42-.48.729-1.036 1.138-1.516.777-.915 2.185-1.156 3.31-1.236zm-23.711.076c1.156-.136 2.726.053 3.679.774.566.428.907 1.223 1.376 1.764a14.697 14.697 0 0 0 5.264 3.871l.095.037c.439.188.891.384 1.355.498l-.927.156c-2.702.388-5.503-.094-7.816-1.597-1.574-1.024-2.683-2.428-3.335-4.18-.095-.257-.238-.535-.287-.803a.457.457 0 0 1 .088-.393l-.001.001c.146-.107.335-.107.509-.127zm47.196-2.335c.9-.008 1.884-.089 2.773.042.572.084 1.153.288 1.5.779.256.361.34.868.261 1.3-.098.529-.432.834-.856 1.118.101.044.202.09.3.142.373.202.64.554.748.963.15.56.03 1.137-.249 1.633a1.484 1.484 0 0 1-.219.257l-.001.001c-.855.811-2.729.654-3.834.644-.212-.002-.492.018-.651-.144a.521.521 0 0 1-.059-.225v-.001c-.073-1.187-.007-2.418-.007-3.608 0-.843-.085-1.94.025-2.756.085-.106.139-.105.267-.144zm3.018 4.172c-.477-.311-1.281-.221-1.835-.22l.002 1.538c.613.004 1.331.098 1.876-.231.127-.188.256-.469.219-.704a.544.544 0 0 0-.259-.381l-.002-.001zm-.228-2.734c-.455-.274-1.094-.204-1.606-.202v1.476c.549.004 1.204.085 1.684-.225.129-.184.253-.45.204-.683-.036-.172-.137-.278-.283-.366zm-11.188.159a1.53 1.53 0 0 1 .411.021c.412.083.613.386.833.709.012-.113.021-.235.048-.345a.345.345 0 0 1 .194-.242c.166-.089.524-.094.698-.029.127.047.268.157.312.291.13.394.08 4.247.004 4.774-.05.372-.167.707-.34 1.007l.007-.013c-.282.492-.763.812-1.302.958-.762.204-1.627.14-2.307-.269-.303-.182-.445-.418-.525-.756.026-.122.056-.241.16-.32.34-.258 1.076.174 1.453.244.325.06.676.027.947-.178.445-.335.519-.956.596-1.468-.299.318-.582.575-1.022.683a1.783 1.783 0 0 1-1.415-.239l.007.004c-.54-.358-.841-.972-.951-1.595-.134-.759-.018-1.667.443-2.302.439-.604 1.042-.827 1.751-.936zm.08 1.162c-.355.133-.551.298-.702.652-.188.436-.193 1.065-.01 1.501.097.229.291.472.534.554.162.054.356.031.522.02.293-.104.459-.228.597-.511.213-.436.22-1.051.058-1.506-.095-.265-.282-.524-.547-.64a1.049 1.049 0 0 0-.383-.072l-.072.002h.003zm29.403-1.121c.349-.046.692-.03 1.022.107.453.188.69.531.87.969.092-.231.194-.465.357-.656.258-.304.596-.425.987-.44.452-.018.914.086 1.244.411.217.213.35.498.423.791.194.778.085 2.451.089 3.331 0 .134.017.56-.089.64-.179.135-.814.105-1.037.074-.131-.018-.211-.089-.264-.207-.084-.181-.039-.507-.036-.708.009-.652.169-2.456-.217-2.932a.502.502 0 0 0-.354-.187h-.002c-.208-.015-.473.057-.624.204-.535.524-.357 2.389-.354 3.123.002.148.007.309-.012.457-.008.065-.03.14-.089.173-.229.131-.784.111-1.036.053-.132-.031-.187-.076-.234-.203-.077-.211-.035-.524-.03-.747.012-.653.166-2.279-.166-2.77a.618.618 0 0 0-.42-.265h-.003c-.199-.032-.406-.005-.568.122-.651.514-.473 2.314-.47 3.058.001.179.037.436-.004.602-.018.07-.037.113-.098.151-.209.138-.776.108-1.027.06a.3.3 0 0 1-.217-.179l-.001-.002c-.064-.135-.083-4.047-.059-4.435a.836.836 0 0 1 .08-.325l-.002.005a.504.504 0 0 1 .297-.248l.004-.001c.31-.1.696.012.97.164.066.244.019.564.009.82.031-.065.064-.13.098-.195.241-.467.468-.657.961-.813zm-5.629.021a2.633 2.633 0 1 1 .11 5.264h-.014a2.633 2.633 0 0 1-.101-5.264h.005zm-.176 1.145c-.388.172-.598.369-.748.773-.18.484-.151 1.159.079 1.62.124.249.316.451.583.54a.954.954 0 0 0 .542.027c.371-.156.593-.354.745-.733.191-.477.189-1.114-.03-1.581a1.148 1.148 0 0 0-.695-.626 1.272 1.272 0 0 0-.476-.02zm-28.994-1.138a2.631 2.631 0 1 1 .242 5.256h-.004l-.073.001a2.631 2.631 0 0 1-.173-5.256h.008zm.41 1.172a1.102 1.102 0 0 0-.521-.034l.007-.001c-.388.193-.61.393-.758.818-.168.48-.142 1.167.099 1.618.132.246.332.427.601.508.165.051.353.055.521.015.37-.154.587-.353.736-.732a2.14 2.14 0 0 0-.05-1.601l.005.014c-.129-.276-.347-.505-.639-.604z"/>
      <path d="M58.123 12.663a2.629 2.629 0 1 1 .852 5.189l-.015.002a2.629 2.629 0 0 1-.853-5.189l.016-.002zm.213 1.106c-.389.165-.613.354-.772.757-.184.474-.166 1.129.053 1.589.132.277.356.505.653.599.148.048.316.047.47.028.388-.164.615-.348.776-.752.187-.469.184-1.117-.034-1.576a1.163 1.163 0 0 0-.63-.602l-.008-.003a1.187 1.187 0 0 0-.515-.041l.006-.001zm-13.356-1.16a2.766 2.766 0 0 1 .989.047l-.019-.004c.492.114.905.4 1.156.842.135.236.212.496.249.764.059.415.091 3.04-.004 3.401a.422.422 0 0 1-.28.163h-.002c-.21.044-.671.071-.842-.086-.148-.137-.118-.424-.12-.609-.246.364-.494.658-.943.771-.501.124-.966-.022-1.397-.271-.184-.169-.324-.342-.403-.583-.133-.405-.091-.953.116-1.326.504-.907 1.691-.852 2.558-1.108l.053-.017c-.034-.108-.068-.219-.113-.324-.491-1.132-1.716.105-2.308-.206a.496.496 0 0 1-.235-.317l-.001-.003c-.041-.172.005-.284.1-.427.318-.484.914-.606 1.444-.708zm1.055 3.025c-.36.1-1.037.209-1.252.536a.398.398 0 0 0-.029.367l-.001-.003c.032.083.095.156.15.224.373.025.606-.003.892-.261.172-.157.332-.411.323-.654-.002-.061-.019-.123-.033-.181l-.049-.027zm-15.769-2.051c.129-.411 1.134-2.374 1.454-2.559.167-.096 1.055-.11 1.234-.028.115.052.126.084.178.19-.091.508-1.214 2.215-1.547 2.772l-.584.971c.003.584.105 2.365-.098 2.788a.49.49 0 0 1-.208.106l-.003.001c-.275.064-.82.044-1.061-.108-.188-.246-.089-2.292-.089-2.744-.299-.477-2.226-3.553-2.174-3.847.063-.092.104-.114.207-.155.325-.009.987-.096 1.255.068.348.212 1.307 2.115 1.436 2.547zm23.855-2.615c.34-.009.898-.094 1.193.082.083.562.05 1.156.052 1.722l.004 2.622c0 .684.075 1.509-.013 2.181-.018.133-.1.178-.197.254-.356.012-.9.1-1.193-.132-.069-.262-.112-6.316-.046-6.555.032-.114.107-.126.202-.175zM13.716 20.43c.406.155.888.287 1.386.375l.049.007c.85.137 1.836.097 2.6.54.564.326 1.141 1.092 1.3 1.727.029.116.02.126-.039.222-.589.213-1.163.162-1.749-.03-1.414-.462-2.856-1.493-3.548-2.841zm-.267.004c.03-.003.059.013.087.021-.002.013-.001.027-.004.041-.073.3-1.236 1.529-1.506 1.74-.929.734-2.308 1.316-3.507 1.173-.032-.007-.076-.016-.106-.029-.064-.03-.105-.053-.122-.124-.045-.187.06-.405.146-.568.276-.524.705-1.14 1.244-1.424.663-.348 1.644-.348 2.382-.479a11.674 11.674 0 0 0 1.47-.376l-.084.024z"/>
    </symbol>
    <symbol id="icon-menu" viewBox="0 0 32 32">
      <path d="M5.333 8h21.333v2.667H5.333V8zm0 6.667h21.333v2.667H5.333v-2.667zm0 6.666h21.333V24H5.333v-2.667z"/>
    </symbol>
    <symbol id="icon-facebook" viewBox="0 0 32 32">
      <path d="M28.8 16.388c0-7.112-5.731-12.877-12.8-12.877S3.2 9.275 3.2 16.387c0 6.428 4.681 11.756 10.801 12.723v-9H10.75v-3.724h3.251V13.55c0-3.228 1.91-5.011 4.835-5.011 1.4 0 2.865.252 2.865.252v3.169h-1.613c-1.591 0-2.086.992-2.086 2.011v2.415h3.549l-.567 3.724h-2.982v8.998c6.118-.966 10.799-6.294 10.799-12.722z"/>
    </symbol>
    <symbol id="icon-instagram" viewBox="0 0 32 32">
      <path d="M21.12 4.79H10.88a6.4 6.4 0 0 0-6.4 6.4v10.24a6.4 6.4 0 0 0 6.4 6.4h10.24a6.4 6.4 0 0 0 6.4-6.4V11.19a6.4 6.4 0 0 0-6.4-6.4zm4.16 16.64a4.172 4.172 0 0 1-4.159 4.16H10.88a4.172 4.172 0 0 1-4.16-4.159V11.19a4.172 4.172 0 0 1 4.159-4.16H21.12a4.172 4.172 0 0 1 4.16 4.159V21.43zm-3.2-9.92a1.28 1.28 0 1 1 0-2.56 1.28 1.28 0 1 1 0 2.56zM16 10.55h-.001.013a5.747 5.747 0 0 1 5.747 5.747v.013a5.76 5.76 0 1 1-5.76-5.76zm-3.52 5.76a3.52 3.52 0 0 0 7.04 0 3.52 3.52 0 0 0-7.04 0z"/>
    </symbol>
    <symbol id="icon-linkedin" viewBox="0 0 32 32">
      <path d="M6.4 4.79h19.2c1.06 0 1.92.86 1.92 1.92v19.2c0 1.06-.86 1.92-1.92 1.92H6.4a1.92 1.92 0 0 1-1.92-1.92V6.71c0-1.06.86-1.92 1.92-1.92zm5.147 5.124c.006-1.073-.81-1.898-1.937-1.924h.003l-.063-.001A1.912 1.912 0 0 0 7.639 9.9v.015-.002l-.001.051c0 1.058.855 1.916 1.912 1.923 1.087.005 2.003-.749 1.996-1.972zm4.811 3.531H13.13v10.957h3.41v-1.715c-.003-1.298-.004-2.597.004-3.894.001-.315.015-.643.096-.943.305-1.123 1.315-1.848 2.441-1.67.724.114 1.203.532 1.404 1.216.124.425.179.884.186 1.33.015 1.34.013 2.682.01 4.022V24.4H24.1v-1.998c-.001-1.446-.003-2.892.001-4.338v-.065a7.73 7.73 0 0 0-.24-1.918l.012.053c-.239-.94-.735-1.718-1.54-2.278-.57-.401-1.197-.658-1.897-.686l-.241-.013c-.358-.019-.722-.038-1.064.031-.979.196-1.839.644-2.49 1.434-.077.091-.15.183-.26.32l-.026.032v-1.528zM7.913 24.406h3.392V13.452H7.913v10.954z"/>
    </symbol>
    <symbol id="icon-youtube" viewBox="0 0 32 32">
      <path d="M28.279 9.86a3.22 3.22 0 0 0-2.233-2.255l-.023-.005c-2.004-.55-10.024-.559-10.024-.559s-8.018-.009-10.024.517A3.292 3.292 0 0 0 3.72 9.811l-.006.023c-.529 2.004-.534 6.162-.534 6.162s-.005 4.178.52 6.162a3.204 3.204 0 0 0 2.257 2.259c2.025.55 10.022.559 10.022.559s8.019.009 10.022-.516a3.234 3.234 0 0 0 2.258-2.234l.005-.023c.53-2.003.534-6.159.534-6.159s.026-4.179-.521-6.184zm-14.844 9.986.006-7.68 6.665 3.846-6.671 3.834z"/>
    </symbol>
    <symbol id="icon-close" viewBox="0 0 32 32">
      <path d="m22.835 22.364-.471.471a.663.663 0 0 1-.942 0l-5.421-5.42-5.421 5.42a.667.667 0 0 1-.944 0l-.471-.471a.663.663 0 0 1 0-.942l5.42-5.421-5.42-5.421a.667.667 0 0 1 0-.944l.47-.471a.67.67 0 0 1 .944 0l5.42 5.42 5.422-5.42c.26-.26.683-.26.943 0l.471.471c.26.26.26.683 0 .943L17.415 16l5.42 5.421c.26.26.26.683 0 .943z"/>
    </symbol>
  </defs>
</svg>