<svg xmlns="http://www.w3.org/2000/svg" aria-hidden="true" style="position:absolute;width:0;height:0;overflow:hidden">
	<defs>
		<symbol id="icon-Frame-1" viewBox="0 0 108 32">
			<path d="M18.908 1.101c.478.237 1.015.919 1.375 1.321 3.094 3.456 4.716 7.858 4.429 12.491-.278 4.484-2.492 8.465-5.816 11.408-.629-.43-1.205-1.043-1.709-1.612-2.823-3.193-4.371-7.68-4.101-11.936.278-4.388 2.521-8.779 5.821-11.672z"/>
			<path d="M32.075 7.376c.009.016.02.03.028.047.176.359.227.927.272 1.325.233 2.069.04 4.144-.688 6.104-1.818 4.895-6.021 8.499-10.669 10.635-.055-.001-.018.004-.102-.045.284-.465.68-.88 1.008-1.316.501-.682.955-1.396 1.359-2.139 1.424-2.62 2.104-5.5 2.102-8.471 0-.844-.02-1.687-.264-2.501.436-.484.97-.891 1.488-1.284 1.671-1.264 3.354-2.144 5.466-2.355zm-26.391.021c.251.01.504.042.752.08 1.909.29 3.579 1.307 5.071 2.484.416.328.872.671 1.185 1.102-.793 4.074.259 8.345 2.365 11.868.336.56.7 1.103 1.089 1.628.186.25.407.477.574.74l-.059.077c-3.473-1.485-6.727-4.114-8.82-7.255-2.196-3.296-2.922-6.846-2.157-10.723z"/>
			<path d="M35.472 16.487c.554-.066 1.795-.136 2.259.16.023.07.03.077.033.162.009.325-.203.811-.313 1.114a12.964 12.964 0 0 1-3.662 5.424c-3.259 2.881-7.483 3.915-11.749 3.641-.806-.084-1.636-.14-2.411-.387 3.574-1.099 6.974-3.345 9.437-6.15.606-.69 1.049-1.49 1.639-2.184 1.118-1.316 3.146-1.664 4.767-1.779zm-34.145.109c1.666-.196 3.926.078 5.298 1.115.816.617 1.307 1.762 1.981 2.541a21.075 21.075 0 0 0 7.717 5.626c.632.271 1.283.553 1.952.718l-1.336.223c-3.891.56-7.924-.135-11.254-2.3C3.418 23.044 1.821 21.022.882 18.5c-.138-.37-.344-.771-.415-1.157a.665.665 0 0 1 .127-.564c.209-.154.481-.152.733-.183zm67.962-3.362c1.297-.011 2.712-.127 3.993.06.824.12 1.661.415 2.162 1.121.368.52.489 1.251.375 1.873-.14.761-.622 1.2-1.233 1.61.147.062.291.129.431.204a2.22 2.22 0 0 1 1.079 1.388c.216.806.043 1.636-.359 2.351a2.11 2.11 0 0 1-.316.371c-1.231 1.167-3.929.941-5.52.926-.306-.003-.709.025-.937-.207a.777.777 0 0 1-.085-.325c-.105-1.708-.009-3.481-.01-5.195-.001-1.214-.122-2.794.036-3.967.122-.153.2-.152.384-.209zm4.345 6.007c-.687-.448-1.844-.319-2.641-.317l.002 2.214c.884.006 1.916.143 2.7-.331.185-.272.37-.676.316-1.015-.039-.246-.173-.417-.377-.55zm-.328-3.936c-.655-.394-1.575-.294-2.312-.29v2.125c.791.006 1.734.123 2.425-.324.186-.266.365-.648.295-.984-.051-.247-.198-.401-.408-.527zm-16.109.229c.198-.016.397-.006.591.031.593.119.883.556 1.2 1.021.018-.163.031-.339.069-.498a.501.501 0 0 1 .279-.348c.24-.127.754-.136 1.005-.043.183.068.387.227.45.419.187.567.114 6.116.006 6.875-.071.5-.226.993-.479 1.431-.407.707-1.099 1.168-1.876 1.379-1.096.296-2.343.202-3.321-.388-.436-.263-.641-.6-.756-1.087.037-.176.08-.347.231-.461.49-.37 1.549.251 2.092.352.468.087.973.039 1.363-.255.642-.484.748-1.379.857-2.116-.43.459-.838.829-1.471.984a2.586 2.586 0 0 1-2.029-.339c-.777-.515-1.211-1.399-1.37-2.296-.194-1.092-.025-2.399.638-3.314.632-.871 1.5-1.192 2.521-1.349zm.116 1.673c-.511.193-.794.429-1.012.939-.27.626-.278 1.533-.014 2.161.139.331.418.68.77.799.232.078.513.044.751.028.421-.15.66-.328.86-.736.307-.628.317-1.513.083-2.169-.136-.381-.405-.755-.786-.92a1.52 1.52 0 0 0-.651-.101zm42.339-1.614c.502-.067.996-.044 1.47.152.655.271.995.765 1.254 1.395.133-.333.279-.668.514-.944.372-.437.859-.611 1.422-.633.649-.025 1.314.124 1.791.59.313.307.505.718.61 1.139.279 1.121.123 3.53.127 4.797.001.194.025.807-.127.922-.258.194-1.172.151-1.494.106-.188-.026-.304-.127-.381-.297-.119-.262-.055-.73-.052-1.02.012-.94.244-3.537-.312-4.222a.722.722 0 0 0-.513-.27c-.299-.021-.68.082-.898.296-.771.755-.515 3.44-.509 4.496.002.213.009.446-.017.658-.012.094-.044.202-.13.251-.329.188-1.128.16-1.49.076-.189-.044-.269-.108-.337-.291-.112-.304-.049-.753-.044-1.074.017-.942.24-3.283-.239-3.989a.892.892 0 0 0-.61-.382c-.286-.047-.584-.009-.818.175-.937.74-.681 3.332-.676 4.403.001.257.054.626-.006.867-.024.1-.054.162-.14.218-.301.198-1.118.155-1.478.084-.152-.03-.248-.123-.314-.26-.092-.195-.12-5.828-.085-6.386a1.19 1.19 0 0 1 .113-.461.719.719 0 0 1 .433-.357c.446-.144 1.002.015 1.396.234.095.352.027.813.012 1.18.046-.094.093-.187.141-.279.348-.672.675-.946 1.385-1.172zm-8.106.029a3.79 3.79 0 1 1 .158 7.578 3.79 3.79 0 0 1-.158-7.578zm-.255 1.649c-.557.248-.86.532-1.076 1.114-.258.696-.216 1.669.114 2.334.178.358.455.649.84.777.264.088.51.102.78.039.534-.224.854-.509 1.074-1.056.275-.686.272-1.604-.044-2.276-.198-.421-.55-.768-1.001-.901-.221-.065-.46-.051-.686-.03zm-41.749-1.638a3.788 3.788 0 1 1 .34 7.57 3.788 3.788 0 0 1-.339-7.571zm.59 1.688c-.242-.083-.491-.082-.741-.05-.559.276-.879.565-1.092 1.176-.241.692-.206 1.68.142 2.33.19.355.477.614.865.733.238.073.508.079.75.021.533-.221.846-.508 1.06-1.055.272-.693.249-1.608-.065-2.285-.185-.398-.499-.726-.919-.87z"/>
			<path d="M83.056 15.675a3.787 3.787 0 0 1 4.124 5.132 3.787 3.787 0 1 1-4.124-5.132zm.309 1.592c-.561.239-.884.51-1.111 1.091-.266.681-.24 1.625.075 2.288.19.399.514.728.941.864.214.068.457.067.677.04.56-.236.886-.501 1.118-1.082.269-.676.265-1.608-.049-2.269-.186-.392-.504-.723-.919-.87-.234-.083-.488-.082-.733-.061zm-19.233-1.67a4 4 0 0 1 1.397.061c.709.164 1.303.577 1.665 1.213.193.34.305.715.359 1.101.083.598.13 4.376-.006 4.896-.114.146-.229.198-.406.236-.303.064-.967.103-1.212-.124-.214-.198-.17-.611-.173-.877-.355.525-.713.948-1.359 1.11-.722.18-1.391-.031-2.013-.39-.265-.244-.466-.494-.58-.84-.192-.584-.13-1.372.169-1.91.725-1.305 2.434-1.227 3.684-1.595l.078-.024c-.05-.156-.099-.316-.164-.466-.707-1.63-2.47.151-3.322-.297a.712.712 0 0 1-.34-.46c-.058-.248.009-.408.144-.614.458-.698 1.316-.874 2.08-1.02zm1.519 4.356c-.52.143-1.494.3-1.804.771a.586.586 0 0 0-.044.525c.046.119.137.224.216.322.537.036.873-.003 1.284-.376.249-.227.477-.591.465-.943-.003-.087-.028-.176-.048-.26l-.07-.04zM42.942 17c.186-.591 1.634-3.42 2.095-3.685.24-.138 1.519-.159 1.776-.041.165.076.183.12.257.274-.132.732-1.75 3.19-2.228 3.991l-.841 1.398c.003.84.151 3.406-.142 4.014a.71.71 0 0 1-.304.152c-.395.092-1.18.065-1.528-.154-.269-.355-.129-3.3-.128-3.951-.43-.687-3.204-5.116-3.131-5.539.092-.132.151-.165.299-.223.468-.014 1.419-.138 1.806.097.502.305 1.881 3.045 2.068 3.668zm34.352-3.766c.491-.013 1.294-.135 1.717.118.119.808.072 1.664.074 2.479l.005 3.776c0 .986.108 2.172-.019 3.14-.025.193-.144.256-.284.366-.511.017-1.298.143-1.719-.189-.099-.378-.161-9.095-.066-9.439.045-.163.153-.182.291-.252zM19.109 26.86c.677.241 1.358.433 2.068.549 1.224.198 2.645.14 3.744.778.812.471 1.643 1.573 1.872 2.487.042.168.03.181-.056.32-.85.306-1.675.233-2.52-.044-2.036-.666-4.112-2.15-5.109-4.09zm-.383.005c.043-.004.084.019.126.031-.002.019-.002.039-.006.059-.105.433-1.781 2.2-2.168 2.507-1.338 1.056-3.324 1.895-5.05 1.689-.046-.01-.11-.023-.152-.042-.093-.043-.152-.077-.176-.178-.065-.27.088-.583.211-.818.395-.756 1.014-1.642 1.79-2.051.956-.503 2.368-.501 3.43-.69.681-.121 1.336-.306 1.996-.507z"/>
		</symbol>
		<symbol id="icon-burger-menu" viewBox="0 0 32 32">
			<path d="M4.799 8.001a1.6 1.6 0 0 1 1.6-1.6h19.2a1.6 1.6 0 0 1 0 3.2h-19.2a1.6 1.6 0 0 1-1.6-1.6zm0 8a1.6 1.6 0 0 1 1.6-1.6h19.2a1.6 1.6 0 0 1 0 3.2h-19.2a1.6 1.6 0 0 1-1.6-1.6zm0 8a1.6 1.6 0 0 1 1.6-1.6h19.2a1.6 1.6 0 0 1 0 3.2h-19.2a1.6 1.6 0 0 1-1.6-1.6z"/>
		</symbol>
		<symbol id="icon-close" viewBox="0 0 32 32">
			<path d="m22.835 22.364-.471.471a.663.663 0 0 1-.942 0l-5.421-5.42-5.421 5.42a.667.667 0 0 1-.944 0l-.471-.471a.663.663 0 0 1 0-.942l5.42-5.421-5.42-5.421a.667.667 0 0 1 0-.944l.47-.471a.67.67 0 0 1 .944 0l5.42 5.42 5.422-5.42c.26-.26.683-.26.943 0l.471.471c.26.26.26.683 0 .943L17.415 16l5.42 5.421c.26.26.26.683 0 .943z"/>
		</symbol>
		<symbol id="icon-logo" viewBox="0 0 76 32">
      <path d="M13.575 2.542c.332.164.705.638.956.917 2.148 2.4 3.276 5.457 3.076 8.675-.193 3.114-1.731 5.878-4.038 7.922-.437-.299-.837-.724-1.187-1.12-1.961-2.217-3.036-5.332-2.848-8.288.193-3.048 1.751-6.097 4.042-8.107z"/>
      <path d="m22.718 6.9.02.032c.122.249.157.644.188.921.162 1.436.028 2.877-.477 4.238-1.263 3.4-4.182 5.902-7.409 7.386-.038 0-.012.003-.071-.031.197-.323.473-.612.7-.915.348-.473.663-.969.943-1.484.989-1.82 1.461-3.82 1.46-5.884 0-.586-.014-1.171-.184-1.737.302-.336.674-.619 1.034-.891 1.16-.878 2.329-1.49 3.796-1.636zm-18.327.015c.174.006.35.029.523.055 1.325.202 2.485.908 3.521 1.724.289.228.605.466.823.765-.551 2.829.18 5.796 1.643 8.242.233.389.485.766.756 1.131.13.174.283.332.399.514l-.042.053c-2.412-1.031-4.671-2.857-6.124-5.038-1.524-2.289-2.029-4.755-1.498-7.445z"/>
      <path d="M25.077 13.227c.385-.044 1.247-.093 1.569.111.017.049.021.053.023.113.006.226-.141.563-.218.773a9.035 9.035 0 0 1-2.533 3.758l-.01.008c-2.264 2.002-5.197 2.72-8.16 2.529-.559-.059-1.136-.098-1.674-.269 2.482-.764 4.843-2.323 6.554-4.27.42-.48.729-1.036 1.138-1.516.777-.915 2.185-1.156 3.31-1.236zm-23.711.076c1.156-.136 2.726.053 3.679.774.566.428.907 1.223 1.376 1.764a14.697 14.697 0 0 0 5.264 3.871l.095.037c.439.188.891.384 1.355.498l-.927.156c-2.702.388-5.503-.094-7.816-1.597-1.574-1.024-2.683-2.428-3.335-4.18-.095-.257-.238-.535-.287-.803a.457.457 0 0 1 .088-.393l-.001.001c.146-.107.335-.107.509-.127zm47.196-2.335c.9-.008 1.884-.089 2.773.042.572.084 1.153.288 1.5.779.256.361.34.868.261 1.3-.098.529-.432.834-.856 1.118.101.044.202.09.3.142.373.202.64.554.748.963.15.56.03 1.137-.249 1.633a1.484 1.484 0 0 1-.219.257l-.001.001c-.855.811-2.729.654-3.834.644-.212-.002-.492.018-.651-.144a.521.521 0 0 1-.059-.225v-.001c-.073-1.187-.007-2.418-.007-3.608 0-.843-.085-1.94.025-2.756.085-.106.139-.105.267-.144zm3.018 4.172c-.477-.311-1.281-.221-1.835-.22l.002 1.538c.613.004 1.331.098 1.876-.231.127-.188.256-.469.219-.704a.544.544 0 0 0-.259-.381l-.002-.001zm-.228-2.734c-.455-.274-1.094-.204-1.606-.202v1.476c.549.004 1.204.085 1.684-.225.129-.184.253-.45.204-.683-.036-.172-.137-.278-.283-.366zm-11.188.159a1.53 1.53 0 0 1 .411.021c.412.083.613.386.833.709.012-.113.021-.235.048-.345a.345.345 0 0 1 .194-.242c.166-.089.524-.094.698-.029.127.047.268.157.312.291.13.394.08 4.247.004 4.774-.05.372-.167.707-.34 1.007l.007-.013c-.282.492-.763.812-1.302.958-.762.204-1.627.14-2.307-.269-.303-.182-.445-.418-.525-.756.026-.122.056-.241.16-.32.34-.258 1.076.174 1.453.244.325.06.676.027.947-.178.445-.335.519-.956.596-1.468-.299.318-.582.575-1.022.683a1.783 1.783 0 0 1-1.415-.239l.007.004c-.54-.358-.841-.972-.951-1.595-.134-.759-.018-1.667.443-2.302.439-.604 1.042-.827 1.751-.936zm.08 1.162c-.355.133-.551.298-.702.652-.188.436-.193 1.065-.01 1.501.097.229.291.472.534.554.162.054.356.031.522.02.293-.104.459-.228.597-.511.213-.436.22-1.051.058-1.506-.095-.265-.282-.524-.547-.64a1.049 1.049 0 0 0-.383-.072l-.072.002h.003zm29.403-1.121c.349-.046.692-.03 1.022.107.453.188.69.531.87.969.092-.231.194-.465.357-.656.258-.304.596-.425.987-.44.452-.018.914.086 1.244.411.217.213.35.498.423.791.194.778.085 2.451.089 3.331 0 .134.017.56-.089.64-.179.135-.814.105-1.037.074-.131-.018-.211-.089-.264-.207-.084-.181-.039-.507-.036-.708.009-.652.169-2.456-.217-2.932a.502.502 0 0 0-.354-.187h-.002c-.208-.015-.473.057-.624.204-.535.524-.357 2.389-.354 3.123.002.148.007.309-.012.457-.008.065-.03.14-.089.173-.229.131-.784.111-1.036.053-.132-.031-.187-.076-.234-.203-.077-.211-.035-.524-.03-.747.012-.653.166-2.279-.166-2.77a.618.618 0 0 0-.42-.265h-.003c-.199-.032-.406-.005-.568.122-.651.514-.473 2.314-.47 3.058.001.179.037.436-.004.602-.018.07-.037.113-.098.151-.209.138-.776.108-1.027.06a.3.3 0 0 1-.217-.179l-.001-.002c-.064-.135-.083-4.047-.059-4.435a.836.836 0 0 1 .08-.325l-.002.005a.504.504 0 0 1 .297-.248l.004-.001c.31-.1.696.012.97.164.066.244.019.564.009.82.031-.065.064-.13.098-.195.241-.467.468-.657.961-.813zm-5.629.021a2.633 2.633 0 1 1 .11 5.264h-.014a2.633 2.633 0 0 1-.101-5.264h.005zm-.176 1.145c-.388.172-.598.369-.748.773-.18.484-.151 1.159.079 1.62.124.249.316.451.583.54a.954.954 0 0 0 .542.027c.371-.156.593-.354.745-.733.191-.477.189-1.114-.03-1.581a1.148 1.148 0 0 0-.695-.626 1.272 1.272 0 0 0-.476-.02zm-28.994-1.138a2.631 2.631 0 1 1 .242 5.256h-.004l-.073.001a2.631 2.631 0 0 1-.173-5.256h.008zm.41 1.172a1.102 1.102 0 0 0-.521-.034l.007-.001c-.388.193-.61.393-.758.818-.168.48-.142 1.167.099 1.618.132.246.332.427.601.508.165.051.353.055.521.015.37-.154.587-.353.736-.732a2.14 2.14 0 0 0-.05-1.601l.005.014c-.129-.276-.347-.505-.639-.604z"/>
      <path d="M58.123 12.663a2.629 2.629 0 1 1 .852 5.189l-.015.002a2.629 2.629 0 0 1-.853-5.189l.016-.002zm.213 1.106c-.389.165-.613.354-.772.757-.184.474-.166 1.129.053 1.589.132.277.356.505.653.599.148.048.316.047.47.028.388-.164.615-.348.776-.752.187-.469.184-1.117-.034-1.576a1.163 1.163 0 0 0-.63-.602l-.008-.003a1.187 1.187 0 0 0-.515-.041l.006-.001zm-13.356-1.16a2.766 2.766 0 0 1 .989.047l-.019-.004c.492.114.905.4 1.156.842.135.236.212.496.249.764.059.415.091 3.04-.004 3.401a.422.422 0 0 1-.28.163h-.002c-.21.044-.671.071-.842-.086-.148-.137-.118-.424-.12-.609-.246.364-.494.658-.943.771-.501.124-.966-.022-1.397-.271-.184-.169-.324-.342-.403-.583-.133-.405-.091-.953.116-1.326.504-.907 1.691-.852 2.558-1.108l.053-.017c-.034-.108-.068-.219-.113-.324-.491-1.132-1.716.105-2.308-.206a.496.496 0 0 1-.235-.317l-.001-.003c-.041-.172.005-.284.1-.427.318-.484.914-.606 1.444-.708zm1.055 3.025c-.36.1-1.037.209-1.252.536a.398.398 0 0 0-.029.367l-.001-.003c.032.083.095.156.15.224.373.025.606-.003.892-.261.172-.157.332-.411.323-.654-.002-.061-.019-.123-.033-.181l-.049-.027zm-15.769-2.051c.129-.411 1.134-2.374 1.454-2.559.167-.096 1.055-.11 1.234-.028.115.052.126.084.178.19-.091.508-1.214 2.215-1.547 2.772l-.584.971c.003.584.105 2.365-.098 2.788a.49.49 0 0 1-.208.106l-.003.001c-.275.064-.82.044-1.061-.108-.188-.246-.089-2.292-.089-2.744-.299-.477-2.226-3.553-2.174-3.847.063-.092.104-.114.207-.155.325-.009.987-.096 1.255.068.348.212 1.307 2.115 1.436 2.547zm23.855-2.615c.34-.009.898-.094 1.193.082.083.562.05 1.156.052 1.722l.004 2.622c0 .684.075 1.509-.013 2.181-.018.133-.1.178-.197.254-.356.012-.9.1-1.193-.132-.069-.262-.112-6.316-.046-6.555.032-.114.107-.126.202-.175zM13.716 20.43c.406.155.888.287 1.386.375l.049.007c.85.137 1.836.097 2.6.54.564.326 1.141 1.092 1.3 1.727.029.116.02.126-.039.222-.589.213-1.163.162-1.749-.03-1.414-.462-2.856-1.493-3.548-2.841zm-.267.004c.03-.003.059.013.087.021-.002.013-.001.027-.004.041-.073.3-1.236 1.529-1.506 1.74-.929.734-2.308 1.316-3.507 1.173-.032-.007-.076-.016-.106-.029-.064-.03-.105-.053-.122-.124-.045-.187.06-.405.146-.568.276-.524.705-1.14 1.244-1.424.663-.348 1.644-.348 2.382-.479a11.674 11.674 0 0 0 1.47-.376l-.084.024z"/>
    </symbol>
    <symbol id="icon-menu" viewBox="0 0 32 32">
      <path d="M5.333 8h21.333v2.667H5.333V8zm0 6.667h21.333v2.667H5.333v-2.667zm0 6.666h21.333V24H5.333v-2.667z"/>
    </symbol>
    <symbol id="icon-facebook" viewBox="0 0 32 32">
      <path d="M28.8 16.388c0-7.112-5.731-12.877-12.8-12.877S3.2 9.275 3.2 16.387c0 6.428 4.681 11.756 10.801 12.723v-9H10.75v-3.724h3.251V13.55c0-3.228 1.91-5.011 4.835-5.011 1.4 0 2.865.252 2.865.252v3.169h-1.613c-1.591 0-2.086.992-2.086 2.011v2.415h3.549l-.567 3.724h-2.982v8.998c6.118-.966 10.799-6.294 10.799-12.722z"/>
    </symbol>
    <symbol id="icon-instagram" viewBox="0 0 32 32">
      <path d="M21.12 4.79H10.88a6.4 6.4 0 0 0-6.4 6.4v10.24a6.4 6.4 0 0 0 6.4 6.4h10.24a6.4 6.4 0 0 0 6.4-6.4V11.19a6.4 6.4 0 0 0-6.4-6.4zm4.16 16.64a4.172 4.172 0 0 1-4.159 4.16H10.88a4.172 4.172 0 0 1-4.16-4.159V11.19a4.172 4.172 0 0 1 4.159-4.16H21.12a4.172 4.172 0 0 1 4.16 4.159V21.43zm-3.2-9.92a1.28 1.28 0 1 1 0-2.56 1.28 1.28 0 1 1 0 2.56zM16 10.55h-.001.013a5.747 5.747 0 0 1 5.747 5.747v.013a5.76 5.76 0 1 1-5.76-5.76zm-3.52 5.76a3.52 3.52 0 0 0 7.04 0 3.52 3.52 0 0 0-7.04 0z"/>
    </symbol>
    <symbol id="icon-linkedin" viewBox="0 0 32 32">
      <path d="M6.4 4.79h19.2c1.06 0 1.92.86 1.92 1.92v19.2c0 1.06-.86 1.92-1.92 1.92H6.4a1.92 1.92 0 0 1-1.92-1.92V6.71c0-1.06.86-1.92 1.92-1.92zm5.147 5.124c.006-1.073-.81-1.898-1.937-1.924h.003l-.063-.001A1.912 1.912 0 0 0 7.639 9.9v.015-.002l-.001.051c0 1.058.855 1.916 1.912 1.923 1.087.005 2.003-.749 1.996-1.972zm4.811 3.531H13.13v10.957h3.41v-1.715c-.003-1.298-.004-2.597.004-3.894.001-.315.015-.643.096-.943.305-1.123 1.315-1.848 2.441-1.67.724.114 1.203.532 1.404 1.216.124.425.179.884.186 1.33.015 1.34.013 2.682.01 4.022V24.4H24.1v-1.998c-.001-1.446-.003-2.892.001-4.338v-.065a7.73 7.73 0 0 0-.24-1.918l.012.053c-.239-.94-.735-1.718-1.54-2.278-.57-.401-1.197-.658-1.897-.686l-.241-.013c-.358-.019-.722-.038-1.064.031-.979.196-1.839.644-2.49 1.434-.077.091-.15.183-.26.32l-.026.032v-1.528zM7.913 24.406h3.392V13.452H7.913v10.954z"/>
    </symbol>
    <symbol id="icon-youtube" viewBox="0 0 32 32">
      <path d="M28.279 9.86a3.22 3.22 0 0 0-2.233-2.255l-.023-.005c-2.004-.55-10.024-.559-10.024-.559s-8.018-.009-10.024.517A3.292 3.292 0 0 0 3.72 9.811l-.006.023c-.529 2.004-.534 6.162-.534 6.162s-.005 4.178.52 6.162a3.204 3.204 0 0 0 2.257 2.259c2.025.55 10.022.559 10.022.559s8.019.009 10.022-.516a3.234 3.234 0 0 0 2.258-2.234l.005-.023c.53-2.003.534-6.159.534-6.159s.026-4.179-.521-6.184zm-14.844 9.986.006-7.68 6.665 3.846-6.671 3.834z"/>
    </symbol>
    <symbol id="icon-close" viewBox="0 0 32 32">
      <path d="m22.835 22.364-.471.471a.663.663 0 0 1-.942 0l-5.421-5.42-5.421 5.42a.667.667 0 0 1-.944 0l-.471-.471a.663.663 0 0 1 0-.942l5.42-5.421-5.42-5.421a.667.667 0 0 1 0-.944l.47-.471a.67.67 0 0 1 .944 0l5.42 5.42 5.422-5.42c.26-.26.683-.26.943 0l.471.471c.26.26.26.683 0 .943L17.415 16l5.42 5.421c.26.26.26.683 0 .943z"/>
    </symbol>
	</defs>
</svg>