<svg xmlns="http://www.w3.org/2000/svg" aria-hidden="true" style="position:absolute;width:0;height:0;overflow:hidden">
  <defs>
    <symbol id="icon-facebook" viewBox="0 0 32 32">
      <path d="M28.8 16.388c0-7.112-5.731-12.877-12.8-12.877S3.2 9.275 3.2 16.387c0 6.428 4.681 11.756 10.801 12.723v-9H10.75v-3.724h3.251V13.55c0-3.228 1.91-5.011 4.835-5.011 1.4 0 2.865.252 2.865.252v3.169h-1.613c-1.591 0-2.086.992-2.086 2.011v2.415h3.549l-.567 3.724h-2.982v8.998c6.118-.966 10.799-6.294 10.799-12.722z"/>
    </symbol>
    <symbol id="icon-instagram" viewBox="0 0 32 32">
      <path d="M21.12 4.79H10.88a6.4 6.4 0 0 0-6.4 6.4v10.24a6.4 6.4 0 0 0 6.4 6.4h10.24a6.4 6.4 0 0 0 6.4-6.4V11.19a6.4 6.4 0 0 0-6.4-6.4zm4.16 16.64a4.172 4.172 0 0 1-4.159 4.16H10.88a4.172 4.172 0 0 1-4.16-4.159V11.19a4.172 4.172 0 0 1 4.159-4.16H21.12a4.172 4.172 0 0 1 4.16 4.159V21.43zm-3.2-9.92a1.28 1.28 0 1 1 0-2.56 1.28 1.28 0 1 1 0 2.56zM16 10.55h-.001.013a5.747 5.747 0 0 1 5.747 5.747v.013a5.76 5.76 0 1 1-5.76-5.76zm-3.52 5.76a3.52 3.52 0 0 0 7.04 0 3.52 3.52 0 0 0-7.04 0z"/>
    </symbol>
    <symbol id="icon-linkedin" viewBox="0 0 32 32">
      <path d="M6.4 4.79h19.2c1.06 0 1.92.86 1.92 1.92v19.2c0 1.06-.86 1.92-1.92 1.92H6.4a1.92 1.92 0 0 1-1.92-1.92V6.71c0-1.06.86-1.92 1.92-1.92zm5.147 5.124c.006-1.073-.81-1.898-1.937-1.924h.003l-.063-.001A1.912 1.912 0 0 0 7.639 9.9v.015-.002l-.001.051c0 1.058.855 1.916 1.912 1.923 1.087.005 2.003-.749 1.996-1.972zm4.811 3.531H13.13v10.957h3.41v-1.715c-.003-1.298-.004-2.597.004-3.894.001-.315.015-.643.096-.943.305-1.123 1.315-1.848 2.441-1.67.724.114 1.203.532 1.404 1.216.124.425.179.884.186 1.33.015 1.34.013 2.682.01 4.022V24.4H24.1v-1.998c-.001-1.446-.003-2.892.001-4.338v-.065a7.73 7.73 0 0 0-.24-1.918l.012.053c-.239-.94-.735-1.718-1.54-2.278-.57-.401-1.197-.658-1.897-.686l-.241-.013c-.358-.019-.722-.038-1.064.031-.979.196-1.839.644-2.49 1.434-.077.091-.15.183-.26.32l-.026.032v-1.528zM7.913 24.406h3.392V13.452H7.913v10.954z"/>
    </symbol>
    <symbol id="icon-youtube" viewBox="0 0 32 32">
      <path d="M28.279 9.86a3.22 3.22 0 0 0-2.233-2.255l-.023-.005c-2.004-.55-10.024-.559-10.024-.559s-8.018-.009-10.024.517A3.292 3.292 0 0 0 3.72 9.811l-.006.023c-.529 2.004-.534 6.162-.534 6.162s-.005 4.178.52 6.162a3.204 3.204 0 0 0 2.257 2.259c2.025.55 10.022.559 10.022.559s8.019.009 10.022-.516a3.234 3.234 0 0 0 2.258-2.234l.005-.023c.53-2.003.534-6.159.534-6.159s.026-4.179-.521-6.184zm-14.844 9.986.006-7.68 6.665 3.846-6.671 3.834z"/>
    </symbol>
    <symbol id="icon-close" viewBox="0 0 32 32">
      <path d="m22.835 22.364-.471.471a.663.663 0 0 1-.942 0l-5.421-5.42-5.421 5.42a.667.667 0 0 1-.944 0l-.471-.471a.663.663 0 0 1 0-.942l5.42-5.421-5.42-5.421a.667.667 0 0 1 0-.944l.47-.471a.67.67 0 0 1 .944 0l5.42 5.42 5.422-5.42c.26-.26.683-.26.943 0l.471.471c.26.26.26.683 0 .943L17.415 16l5.42 5.421c.26.26.26.683 0 .943z"/>
    </symbol>
  </defs>
</svg>