<svg width="359" height="359" viewBox="0 0 359 359" fill="none" xmlns="http://www.w3.org/2000/svg">
<path d="M177.938 59C181.741 60.8889 186.017 66.3133 188.888 69.5207C213.518 97.0345 226.437 132.077 224.152 168.965C221.94 204.662 204.311 236.358 177.851 259.784C172.841 256.359 168.256 251.484 164.248 246.952C141.77 221.53 129.449 185.812 131.596 151.926C133.809 116.99 151.668 82.0316 177.938 59Z" fill="#0D0B0A"/>
<path d="M282.757 108.962C282.83 109.085 282.913 109.204 282.976 109.333C284.378 112.187 284.783 116.716 285.139 119.884C286.99 136.36 285.458 152.879 279.664 168.479C265.186 207.451 231.724 236.14 194.727 253.147C194.291 253.142 194.583 253.177 193.918 252.79C196.179 249.091 199.331 245.785 201.94 242.31C205.93 236.884 209.546 231.195 212.761 225.283C224.094 204.428 229.514 181.493 229.497 157.841C229.493 151.123 229.338 144.413 227.395 137.93C230.864 134.079 235.116 130.833 239.242 127.71C252.542 117.646 265.943 110.641 282.757 108.962Z" fill="#0D0B0A"/>
<path d="M72.6518 109.125C74.6484 109.202 76.6629 109.461 78.6377 109.761C93.8357 112.073 107.133 120.167 119.006 129.533C122.319 132.147 125.945 134.873 128.44 138.308C122.127 170.74 130.5 204.746 147.269 232.794C149.947 237.252 152.841 241.575 155.939 245.755C157.418 247.746 159.179 249.553 160.505 251.643L160.036 252.253C132.385 240.429 106.484 219.504 89.8206 194.495C72.3396 168.254 66.5592 139.989 72.6518 109.125Z" fill="#0D0B0A"/>
<path d="M309.806 181.498C314.215 180.972 324.095 180.416 327.791 182.769C327.977 183.325 328.032 183.38 328.052 184.055C328.126 186.641 326.436 190.513 325.56 192.926C319.696 209.576 309.656 224.444 296.403 236.105C270.459 259.045 236.83 267.275 202.867 265.091C196.452 264.421 189.839 263.974 183.673 262.008C212.129 253.256 239.196 235.375 258.808 213.046C263.629 207.556 267.163 201.182 271.854 195.661C280.757 185.182 296.899 182.412 309.806 181.498Z" fill="#0D0B0A"/>
<path d="M37.9683 182.367C51.2288 180.803 69.2222 182.988 80.1445 191.243C86.6382 196.153 90.5515 205.267 95.9183 211.472C112.701 230.907 133.721 246.232 157.36 256.265C162.393 258.419 167.575 260.668 172.897 261.979L162.258 263.756C131.277 268.214 99.1719 262.679 72.6634 245.443C54.6114 233.702 41.901 217.603 34.4284 197.523C33.3313 194.579 31.6891 191.382 31.1281 188.314C30.8005 186.522 31.0889 185.341 32.1359 183.822C33.8024 182.595 35.9688 182.61 37.9683 182.367Z" fill="#0D0B0A"/>
<path d="M179.536 264.078C184.926 265.995 190.349 267.529 196.003 268.447C205.744 270.026 217.061 269.564 225.812 274.637C232.274 278.385 238.892 287.162 240.719 294.44C241.054 295.775 240.957 295.884 240.273 296.991C233.509 299.429 226.94 298.848 220.209 296.644C203.997 291.342 187.471 279.527 179.536 264.078Z" fill="#0D0B0A"/>
<path d="M176.487 264.118C176.829 264.088 177.157 264.267 177.488 264.361C177.471 264.515 177.474 264.674 177.437 264.828C176.605 268.278 163.258 282.347 160.176 284.784C149.526 293.194 133.714 299.87 119.975 298.227C119.607 298.148 119.097 298.049 118.762 297.895C118.023 297.552 117.554 297.279 117.359 296.48C116.838 294.33 118.06 291.838 119.037 289.972C122.184 283.955 127.113 276.896 133.287 273.644C140.898 269.643 152.136 269.658 160.594 268.154C166.012 267.191 171.234 265.722 176.487 264.118Z" fill="#0D0B0A"/>
</svg>